<?xml version="1.0" encoding="UTF-8" standalone="no" ?>
<!DOCTYPE svg PUBLIC "-//W3C//DTD SVG 1.1//EN" "http://www.w3.org/Graphics/SVG/1.1/DTD/svg11.dtd">
<svg xmlns="http://www.w3.org/2000/svg" xmlns:xlink="http://www.w3.org/1999/xlink" version="1.1" width="1080" height="1080" viewBox="0 0 1080 1080" xml:space="preserve">
<desc>Created with Fabric.js 5.2.4</desc>
<defs>
</defs>
<rect x="0" y="0" width="100%" height="100%" fill="transparent"></rect>
<g transform="matrix(1 0 0 1 540 540)" id="8cd8b114-a1c0-4213-8088-eeb4412b67c3"  >
<rect style="stroke: none; stroke-width: 1; stroke-dasharray: none; stroke-linecap: butt; stroke-dashoffset: 0; stroke-linejoin: miter; stroke-miterlimit: 4; fill: rgb(255,255,255); fill-rule: nonzero; opacity: 1; visibility: hidden;" vector-effect="non-scaling-stroke"  x="-540" y="-540" rx="0" ry="0" width="1080" height="1080" />
</g>
<g transform="matrix(1 0 0 1 540 540)" id="6d7b537c-ebe9-417c-8301-d2e84f1771e2"  >
</g>
<g transform="matrix(9.85 0 0 9.5 540 539.85)" id="351af180-c86b-425f-b68a-8f8fc16c104d"  >
<path style="stroke: rgb(0,0,0); stroke-width: 0; stroke-dasharray: none; stroke-linecap: butt; stroke-dashoffset: 0; stroke-linejoin: miter; stroke-miterlimit: 4; fill: rgb(255,255,255); fill-rule: nonzero; opacity: 1;" vector-effect="non-scaling-stroke"  transform=" translate(-45, -45)" d="M 78.527 20.998 C 67.554 12.769000000000002 57.115 12.997000000000002 57.115 12.997000000000002 L 56.048 14.216000000000001 C 69.00200000000001 18.178 75.021 23.893 75.021 23.893 C 67.096 19.55 59.324 17.416 52.085 16.578 C 46.599000000000004 15.968 41.341 16.121 36.693 16.73 C 36.236 16.73 35.855 16.806 35.397999999999996 16.882 C 32.730999999999995 17.111 26.253999999999998 18.101000000000003 18.100999999999996 21.683 C 15.281999999999996 22.978 13.604999999999995 23.893 13.604999999999995 23.893 C 13.604999999999995 23.893 19.929999999999996 17.873 33.644999999999996 13.911000000000001 L 32.882999999999996 12.997000000000002 C 32.882999999999996 12.997000000000002 22.443999999999996 12.768000000000002 11.470999999999997 20.998 C 11.470999999999997 20.998 0.4979999999999958 40.886 0.4979999999999958 65.422 C 0.4979999999999958 65.422 6.898999999999996 76.471 23.738999999999997 77.00399999999999 C 23.738999999999997 77.00399999999999 26.557999999999996 73.57499999999999 28.843999999999998 70.67999999999999 C 19.166999999999998 67.78399999999999 15.508999999999997 61.68899999999999 15.508999999999997 61.68899999999999 C 15.508999999999997 61.68899999999999 16.270999999999997 62.221999999999994 17.642999999999997 62.983999999999995 C 17.718999999999998 63.059999999999995 17.794999999999998 63.135999999999996 17.947999999999997 63.212999999999994 C 18.176999999999996 63.364999999999995 18.404999999999998 63.44199999999999 18.633999999999997 63.593999999999994 C 20.538999999999998 64.66099999999999 22.443999999999996 65.499 24.196999999999996 66.18499999999999 C 27.320999999999994 67.40399999999998 31.054999999999996 68.62299999999999 35.397999999999996 69.46099999999998 C 41.113 70.52799999999998 47.818 70.90899999999998 55.132999999999996 69.53699999999998 C 58.714 68.92699999999998 62.37199999999999 67.86099999999998 66.18199999999999 66.25999999999998 C 68.84899999999999 65.26899999999998 71.82099999999998 63.821999999999974 74.945 61.763999999999974 C 74.945 61.763999999999974 71.13499999999999 68.01199999999997 61.15299999999999 70.83199999999998 C 63.43899999999999 73.72799999999998 66.18199999999999 77.00399999999998 66.18199999999999 77.00399999999998 C 83.023 76.47 89.5 65.422 89.5 65.422 C 89.5 40.886 78.527 20.998 78.527 20.998 z M 30.751 58.335 C 26.484 58.335 22.979 54.525 22.979 49.877 C 22.979 45.229000000000006 26.407999999999998 41.419000000000004 30.750999999999998 41.419000000000004 C 35.093999999999994 41.419000000000004 38.599 45.229000000000006 38.522999999999996 49.877 C 38.523 54.525 35.094 58.335 30.751 58.335 z M 58.563 58.335 C 54.296 58.335 50.791000000000004 54.525 50.791000000000004 49.877 C 50.791000000000004 45.229000000000006 54.220000000000006 41.419000000000004 58.563 41.419000000000004 C 62.906 41.419000000000004 66.33500000000001 45.229000000000006 66.33500000000001 49.877 C 66.33500000000001 54.525 62.907 58.335 58.563 58.335 z" stroke-linecap="round" />
</g>
</svg>