<?xml version="1.0" encoding="UTF-8" standalone="no" ?>
<!DOCTYPE svg PUBLIC "-//W3C//DTD SVG 1.1//EN" "http://www.w3.org/Graphics/SVG/1.1/DTD/svg11.dtd">
<svg xmlns="http://www.w3.org/2000/svg" xmlns:xlink="http://www.w3.org/1999/xlink" version="1.1" width="1080" height="1080" viewBox="0 0 1080 1080" xml:space="preserve">
<desc>Created with Fabric.js 5.2.4</desc>
<defs>
</defs>
<rect x="0" y="0" width="100%" height="100%" fill="transparent"></rect>
<g transform="matrix(1 0 0 1 540 540)" id="8cd8b114-a1c0-4213-8088-eeb4412b67c3"  >
<rect style="stroke: none; stroke-width: 1; stroke-dasharray: none; stroke-linecap: butt; stroke-dashoffset: 0; stroke-linejoin: miter; stroke-miterlimit: 4; fill: rgb(255,255,255); fill-rule: nonzero; opacity: 1; visibility: hidden;" vector-effect="non-scaling-stroke"  x="-540" y="-540" rx="0" ry="0" width="1080" height="1080" />
</g>
<g transform="matrix(1 0 0 1 540 540)" id="6d7b537c-ebe9-417c-8301-d2e84f1771e2"  >
</g>
<g transform="matrix(3.46 0 0 3.33 540 539.05)"  >
<g style="" vector-effect="non-scaling-stroke"   >
		<g transform="matrix(2.81 0 0 2.81 0 -48.62)"  >
<path style="stroke: none; stroke-width: 1; stroke-dasharray: none; stroke-linecap: butt; stroke-dashoffset: 0; stroke-linejoin: miter; stroke-miterlimit: 10; fill: rgb(255,255,255); fill-rule: nonzero; opacity: 1;" vector-effect="non-scaling-stroke"  transform=" translate(-45, -27.7)" d="M 45 42.768 L 90 21.983 L 90 18.396 C 90 15.21 87.418 12.628 84.232 12.628 L 5.768 12.628 C 2.582 12.627 0 15.209 0 18.395 L 0 21.982 L 45 42.768 z" stroke-linecap="round" />
</g>
		<g transform="matrix(2.81 0 0 2.81 0 26.99)"  >
<path style="stroke: none; stroke-width: 1; stroke-dasharray: none; stroke-linecap: butt; stroke-dashoffset: 0; stroke-linejoin: miter; stroke-miterlimit: 10; fill: rgb(255,255,255); fill-rule: nonzero; opacity: 1;" vector-effect="non-scaling-stroke"  transform=" translate(-45, -54.61)" d="M 45 52.626 L 0 31.84 L 0 71.605 C 0 74.791 2.582 77.373 5.768 77.373 L 84.232 77.373 C 87.418 77.373 90 74.79100000000001 90 71.605 L 90 31.84 L 45 52.626 z" stroke-linecap="round" />
</g>
</g>
</g>
</svg>