<?xml version="1.0" encoding="UTF-8" standalone="no" ?>
<!DOCTYPE svg PUBLIC "-//W3C//DTD SVG 1.1//EN" "http://www.w3.org/Graphics/SVG/1.1/DTD/svg11.dtd">
<svg xmlns="http://www.w3.org/2000/svg" xmlns:xlink="http://www.w3.org/1999/xlink" version="1.1" width="1080" height="1080" viewBox="0 0 1080 1080" xml:space="preserve">
<desc>Created with Fabric.js 5.2.4</desc>
<defs>
</defs>
<rect x="0" y="0" width="100%" height="100%" fill="transparent"></rect>
<g transform="matrix(1 0 0 1 540 540)" id="8cd8b114-a1c0-4213-8088-eeb4412b67c3"  >
<rect style="stroke: none; stroke-width: 1; stroke-dasharray: none; stroke-linecap: butt; stroke-dashoffset: 0; stroke-linejoin: miter; stroke-miterlimit: 4; fill: rgb(255,255,255); fill-rule: nonzero; opacity: 1; visibility: hidden;" vector-effect="non-scaling-stroke"  x="-540" y="-540" rx="0" ry="0" width="1080" height="1080" />
</g>
<g transform="matrix(1 0 0 1 540 540)" id="6d7b537c-ebe9-417c-8301-d2e84f1771e2"  >
</g>
<g transform="matrix(9.75 0 0 9.74 540.8 539.85)" id="ba606af0-cbdc-4d90-803c-3cc5fee1fe74"  >
<path style="stroke: rgb(0,0,0); stroke-width: 0; stroke-dasharray: none; stroke-linecap: butt; stroke-dashoffset: 0; stroke-linejoin: miter; stroke-miterlimit: 4; fill: rgb(255,255,255); fill-rule: nonzero; opacity: 1;" vector-effect="non-scaling-stroke"  transform=" translate(-45, -45)" d="M 45 0 C 20.147 0 0 20.467 0 45.714 C 0 67.034 14.367 84.944 33.802 90 C 33.789 84.717 33.772 78.237 33.762 76.218 C 20.776 79.087 18.036 70.623 18.036 70.623 C 15.913 65.14200000000001 12.853000000000002 63.684000000000005 12.853000000000002 63.684000000000005 C 8.617 60.74100000000001 13.172000000000002 60.801 13.172000000000002 60.801 C 17.859 61.135000000000005 20.328000000000003 65.688 20.328000000000003 65.688 C 24.491000000000003 72.937 31.248000000000005 70.84100000000001 33.912000000000006 69.63 C 34.331 66.566 35.540000000000006 64.473 36.876000000000005 63.288999999999994 C 26.508000000000003 62.089999999999996 15.608000000000004 58.023999999999994 15.608000000000004 39.854 C 15.608000000000004 34.677 17.432000000000006 30.447 20.418000000000003 27.125999999999998 C 19.933000000000003 25.930999999999997 18.335 21.107999999999997 20.870000000000005 14.575999999999997 C 20.870000000000005 14.575999999999997 24.790000000000006 13.301999999999996 33.71000000000001 19.436999999999998 C 37.43400000000001 18.386 41.42700000000001 17.858999999999998 45.394000000000005 17.840999999999998 C 49.361000000000004 17.858999999999998 53.357000000000006 18.386 57.08800000000001 19.436999999999998 C 65.998 13.301999999999998 69.912 14.575999999999997 69.912 14.575999999999997 C 72.453 21.107999999999997 70.855 25.930999999999997 70.37 27.125999999999998 C 73.363 30.447 75.174 34.677 75.174 39.854 C 75.174 58.068 64.254 62.077 53.85900000000001 63.251999999999995 C 55.53300000000001 64.72399999999999 57.025000000000006 67.609 57.025000000000006 72.033 C 57.025000000000006 75.546 57.00900000000001 83.634 56.99400000000001 89.773 C 76.021 84.439 90 66.74 90 45.714 C 90 20.467 69.853 0 45 0 z" stroke-linecap="round" />
</g>
</svg>