<?xml version="1.0" encoding="UTF-8" standalone="no" ?>
<!DOCTYPE svg PUBLIC "-//W3C//DTD SVG 1.1//EN" "http://www.w3.org/Graphics/SVG/1.1/DTD/svg11.dtd">
<svg xmlns="http://www.w3.org/2000/svg" xmlns:xlink="http://www.w3.org/1999/xlink" version="1.1" width="1080" height="1080" viewBox="0 0 1080 1080" xml:space="preserve">
<desc>Created with Fabric.js 5.2.4</desc>
<defs>
</defs>
<rect x="0" y="0" width="100%" height="100%" fill="transparent"></rect>
<g transform="matrix(1 0 0 1 540 540)" id="8cd8b114-a1c0-4213-8088-eeb4412b67c3"  >
<rect style="stroke: none; stroke-width: 1; stroke-dasharray: none; stroke-linecap: butt; stroke-dashoffset: 0; stroke-linejoin: miter; stroke-miterlimit: 4; fill: rgb(255,255,255); fill-rule: nonzero; opacity: 1; visibility: hidden;" vector-effect="non-scaling-stroke"  x="-540" y="-540" rx="0" ry="0" width="1080" height="1080" />
</g>
<g transform="matrix(1 0 0 1 540 540)" id="6d7b537c-ebe9-417c-8301-d2e84f1771e2"  >
</g>
<g transform="matrix(3.46 0 0 3.46 540 539.85)"  >
<g style="" vector-effect="non-scaling-stroke"   >
		<g transform="matrix(2.81 0 0 2.81 0.18 0)"  >
<polygon style="stroke: none; stroke-width: 1; stroke-dasharray: none; stroke-linecap: butt; stroke-dashoffset: 0; stroke-linejoin: miter; stroke-miterlimit: 10; fill: rgb(255,255,255); fill-rule: nonzero; opacity: 1;" vector-effect="non-scaling-stroke"  points="-20.17,-21.99 12.73,21.99 20.17,21.99 -12.72,-21.99 " />
</g>
		<g transform="matrix(2.81 0 0 2.81 0 0)"  >
<path style="stroke: none; stroke-width: 1; stroke-dasharray: none; stroke-linecap: butt; stroke-dashoffset: 0; stroke-linejoin: miter; stroke-miterlimit: 10; fill: rgb(255,255,255); fill-rule: nonzero; opacity: 1;" vector-effect="non-scaling-stroke"  transform=" translate(-45, -45)" d="M 45 0 L 45 0 C 20.147 0 0 20.147 0 45 L 0 45 C 0 69.85300000000001 20.147 90 45 90 L 45 90 C 69.85300000000001 90 90 69.85300000000001 90 45 L 90 45 C 90 20.147 69.853 0 45 0 z M 56.032 70.504 L 41.054 50.477 L 22.516 70.504 L 17.750999999999998 70.504 L 38.925 47.63 L 17.884 19.496 L 34.101 19.496 L 47.895 37.94 L 64.967 19.496 L 69.732 19.496 L 50.024 40.788 L 72.249 70.50399999999999 L 56.032 70.50399999999999 z" stroke-linecap="round" />
</g>
</g>
</g>
</svg>