<?xml version="1.0" standalone="no"?>
<!DOCTYPE svg PUBLIC "-//W3C//DTD SVG 20010904//EN"
 "http://www.w3.org/TR/2001/REC-SVG-20010904/DTD/svg10.dtd">
<svg version="1.0" xmlns="http://www.w3.org/2000/svg"
 width="800.000000pt" height="800.000000pt" viewBox="0 0 800.000000 800.000000"
 preserveAspectRatio="xMidYMid meet">
<metadata>
Created by potrace 1.14, written by Peter Selinger 2001-2017
</metadata>
<g transform="translate(0.000000,800.000000) scale(0.100000,-0.100000)"
fill="#000000" stroke="none">
<path d="M6028 5552 l-48 -3 -1 -87 c0 -48 -2 -267 -4 -487 -5 -593 -2 -535
-22 -528 -10 4 -20 9 -23 12 -5 6 -11 10 -113 67 -71 41 -191 81 -289 98 -157
27 -419 2 -543 -53 -25 -11 -45 -18 -45 -15 0 6 -150 -75 -195 -106 -66 -46
-189 -171 -235 -239 -73 -108 -136 -257 -156 -366 -19 -109 -25 -180 -23 -293
4 -198 27 -336 80 -459 18 -44 96 -181 109 -193 3 -3 18 -23 35 -45 42 -57
175 -185 191 -185 4 0 17 -9 28 -19 32 -29 129 -79 217 -111 44 -16 79 -27 79
-25 0 2 21 -4 48 -12 64 -20 317 -26 397 -8 164 35 276 85 378 170 38 31 71
54 74 51 3 -3 6 -47 7 -98 l1 -93 288 -3 288 -2 -3 1517 -3 1518 -235 0 c-129
0 -256 -1 -282 -3z m-456 -1406 c48 -7 149 -46 166 -63 7 -7 18 -13 23 -13 21
0 136 -129 161 -180 42 -88 51 -157 46 -371 -4 -193 -4 -194 -36 -263 -47
-101 -117 -183 -189 -221 -21 -11 -40 -23 -43 -26 -3 -3 -30 -14 -60 -24 -69
-23 -248 -26 -335 -5 -196 47 -353 232 -380 450 -30 238 22 439 146 571 67 70
179 131 269 147 49 9 173 8 232 -2z"/>
<path d="M3585 5492 c-69 -15 -203 -102 -189 -123 3 -5 0 -9 -6 -9 -21 0 -59
-103 -63 -169 -5 -100 19 -172 83 -247 93 -107 265 -141 395 -76 164 81 236
283 156 439 -70 139 -229 217 -376 185z"/>
<path d="M1954 4634 c-118 -27 -162 -39 -192 -52 -21 -9 -40 -16 -43 -16 -22
-2 -170 -108 -215 -153 -51 -52 -119 -169 -129 -223 -2 -12 -7 -31 -11 -43
-13 -39 -11 -181 4 -237 65 -253 238 -383 672 -504 295 -83 379 -125 416 -213
44 -102 -21 -209 -153 -249 -58 -18 -207 -20 -260 -4 -70 21 -166 73 -203 110
-39 39 -94 137 -105 188 -5 26 -11 31 -28 28 -81 -17 -359 -101 -397 -121 -55
-28 -50 -88 17 -214 132 -247 319 -376 638 -438 51 -10 334 -10 401 -1 134 20
322 103 411 183 77 69 109 107 142 168 99 181 113 413 33 572 -26 52 -78 124
-100 138 -7 5 -20 16 -30 26 -38 38 -221 137 -288 156 -16 5 -31 9 -34 10 -10
3 -278 87 -370 117 -140 44 -230 91 -258 134 -67 104 2 211 148 230 129 17
187 6 276 -53 59 -38 91 -81 130 -171 21 -50 30 -61 45 -57 9 3 28 8 41 10 69
14 289 68 323 81 73 27 80 36 65 91 -44 161 -168 317 -320 406 -50 28 -175 72
-230 80 -19 3 -57 9 -84 13 -45 6 -291 13 -312 8z"/>
<path d="M3370 3560 l0 -1040 290 0 290 0 0 1040 0 1040 -290 0 -290 0 0
-1040z"/>
</g>
</svg>
